<svg xmlns="http://www.w3.org/2000/svg" width="32" height="25" viewBox="0 0 32 25">
  <path id="Icon_awesome-user-lock" data-name="Icon awesome-user-lock" d="M10.625,12.5c3.452,0,7-2.548,7-6s-3.548-6-7-6a5.832,5.832,0,0,0-6,6A5.832,5.832,0,0,0,10.625,12.5Zm5,3c0-.522-.256-.545,0-1-.234-.024.244,0,0,0h-1a8.231,8.231,0,0,1-7,0h-1c-3.623,0-7,2.376-7,6v2a3.621,3.621,0,0,0,3,3h13c-.281-.473,0-1.45,0-2Zm14-1h-1v-4a4,4,0,0,0-8,0v4h-2c-.863,0-1,.137-1,1v8c0,.863.137,2,1,2h11a2.414,2.414,0,0,0,2-2v-8C31.625,14.637,30.488,14.5,29.625,14.5Zm-5,7a2.414,2.414,0,0,1-2-2,2.414,2.414,0,0,1,2-2c.863,0,1,1.137,1,2S25.488,21.5,24.625,21.5Zm1-7h-3v-4a2.414,2.414,0,0,1,2-2c.863,0,1,1.137,1,2Z" transform="translate(0.375 -0.5)" fill="#35558a"/>
</svg>
