<svg id="Icon_feather-server" data-name="Icon feather-server" xmlns="http://www.w3.org/2000/svg" width="34.5" height="34.5" viewBox="0 0 34.5 34.5">
  <path id="Tracé_695" data-name="Tracé 695" d="M6.5,2.5h24a4,4,0,0,1,4,4v6a4,4,0,0,1-4,4H6.5a4,4,0,0,1-4-4v-6A4,4,0,0,1,6.5,2.5Zm24,12a2,2,0,0,0,2-2v-6a2,2,0,0,0-2-2H6.5a2,2,0,0,0-2,2v6a2,2,0,0,0,2,2Z" fill="#35558a"/>
  <path id="Tracé_696" data-name="Tracé 696" d="M6.5,20.5h24a4,4,0,0,1,4,4v6a4,4,0,0,1-4,4H6.5a4,4,0,0,1-4-4v-6A4,4,0,0,1,6.5,20.5Zm24,12a2,2,0,0,0,2-2v-6a2,2,0,0,0-2-2H6.5a2,2,0,0,0-2,2v6a2,2,0,0,0,2,2Z" fill="#35558a"/>
  <path id="Tracé_697" data-name="Tracé 697" fill="#35558a"/>
  <path id="Tracé_698" data-name="Tracé 698" fill="#35558a"/>
</svg>
