<svg xmlns="http://www.w3.org/2000/svg" width="27" height="27" viewBox="0 0 27 27">
  <g id="Icon_feather-pen-tool" data-name="Icon feather-pen-tool" transform="translate(-1.701 -1.701)">
    <path id="Tracé_699" data-name="Tracé 699" d="M21.5,31.5l-.071,0a1,1,0,0,1-.729-.4l-3-4a1,1,0,0,1,.093-1.307l8-8A1,1,0,0,1,27.1,17.7l4,3a1,1,0,0,1,.107,1.507l-9,9A1,1,0,0,1,21.5,31.5Zm-1.68-4.906,1.788,2.384,7.369-7.369L26.594,19.82Z" transform="translate(-2.799 -2.799)" fill="#35558a"/>
    <path id="Tracé_700" data-name="Tracé 700" d="M16.7,23.7a1,1,0,0,1-.217-.024l-9-2a1,1,0,0,1-.747-.709l-5-18A1,1,0,0,1,2.968,1.737l18,5a1,1,0,0,1,.709.747l2,9a1,1,0,0,1-.269.924l-6,6A1,1,0,0,1,16.7,23.7ZM8.5,19.855l7.878,1.751,5.224-5.224L19.855,8.5,4.138,4.138Z" fill="#35558a"/>
    <path id="Tracé_701" data-name="Tracé 701" d="M12.7,13.7a1,1,0,0,1-.707-.293l-10-10A1,1,0,0,1,3.408,1.993l10,10A1,1,0,0,1,12.7,13.7Z" fill="#35558a"/>
    <path id="Tracé_702" data-name="Tracé 702" d="M15.66,12.66a5.194,5.194,0,0,1,2.5.626,2.7,2.7,0,0,1,1.5,2.374,4.462,4.462,0,0,1-4,4,2.7,2.7,0,0,1-2.374-1.5,5.194,5.194,0,0,1-.626-2.5A2.731,2.731,0,0,1,15.66,12.66Zm0,5a2.169,2.169,0,0,0,1.3-.7,2.169,2.169,0,0,0,.7-1.3c0-.572-1.056-1-2-1a1.191,1.191,0,0,0-.8.2,1.191,1.191,0,0,0-.2.8C14.66,16.6,15.088,17.66,15.66,17.66Z" transform="translate(-1.96 -1.96)" fill="#35558a"/>
  </g>
</svg>
