<svg xmlns="http://www.w3.org/2000/svg" width="32" height="14" viewBox="0 0 32 14">
  <path id="Icon_ionic-ios-infinite" data-name="Icon ionic-ios-infinite" d="M31.993,13a6.73,6.73,0,0,0-5-2,6.719,6.719,0,0,0-5,2l-3,2c-.112.113-.112-.105,0,0l2,2c.105.105-.112.105,0,0l2-2a6.874,6.874,0,0,1,4-2c1.336,0,2.051,1.079,3,2s2,1.7,2,3-1.065,2.093-2,3-1.664,2-3,2a6.874,6.874,0,0,1-4-2l-9-8a6.763,6.763,0,0,0-5-2,6.719,6.719,0,0,0-5,2,6.609,6.609,0,0,0-2,5,6.619,6.619,0,0,0,2,5,6.73,6.73,0,0,0,5,2,6.719,6.719,0,0,0,5-2l3-2c.112-.112.112.105,0,0l-2-2c-.105-.105.113-.105,0,0l-2,2a6.874,6.874,0,0,1-4,2c-1.336,0-2.051-1.079-3-2s-2-1.7-2-3,1.065-2.086,2-3,1.664-2,3-2a6.874,6.874,0,0,1,4,2l9,8a6.763,6.763,0,0,0,5,2,6.719,6.719,0,0,0,5-2,6.583,6.583,0,0,0,2-5A6.558,6.558,0,0,0,31.993,13Z" transform="translate(-1.993 -11.004)" fill="#35558a"/>
</svg>
