<svg xmlns="http://www.w3.org/2000/svg" width="184.341" height="176.087" viewBox="0 0 184.341 176.087">
  <g id="Groupe_43" data-name="Groupe 43" transform="translate(-160.118 -102.301)">
    <g id="Groupe_41" data-name="Groupe 41">
      <g id="Groupe_30" data-name="Groupe 30">
        <circle id="Ellipse_18" data-name="Ellipse 18" cx="62.256" cy="62.256" r="62.256" transform="translate(163.573 190.345) rotate(-45)" fill="#baedf4"/>
        <path id="Tracé_627" data-name="Tracé 627" d="M302.459,205.3v21a64.644,64.644,0,0,1-8,9v-30h0a47.529,47.529,0,0,0-6-6v-1l3-1a5.79,5.79,0,0,1,4,0c.606.262,1.37.8,2,1v3c2.888,2.365,4.965,3.845,5,4Z" fill="#7fd6cb" opacity="0.73"/>
      </g>
      <g id="Groupe_40" data-name="Groupe 40">
        <g id="Groupe_31" data-name="Groupe 31">
          <path id="Tracé_628" data-name="Tracé 628" d="M163.459,110.3l18,43,13-9,8,11,1-19,16-10Z" fill="#ffb031"/>
          <path id="Tracé_629" data-name="Tracé 629" d="M197.459,142.3l-16,11,13-9,8,11,1-19-25-15Z" fill="#ff9433"/>
          <path id="Tracé_630" data-name="Tracé 630" d="M203.459,141.3l-25-20,25,15Z" fill="#f73"/>
        </g>
        <g id="Groupe_32" data-name="Groupe 32">
          <path id="Tracé_631" data-name="Tracé 631" d="M202.459,160.3c-.144-.835.216-1.191,0-2h1c.226.846.849,1.127,1,2Z" fill="#00c8b7"/>
          <path id="Tracé_632" data-name="Tracé 632" d="M187.459,190.3a10.3,10.3,0,0,1-5-2l1-1c1.336.886,2.343.889,4,1Zm5-1v-2a13.225,13.225,0,0,0,4-3l1,1A19.928,19.928,0,0,1,192.459,189.3Zm-14-5a11.817,11.817,0,0,1-1-5c0-.131-.005.131,0,0v-1h1v1c0,.117,0-.113,0,0a8.829,8.829,0,0,0,1,4Zm50-1v-1c1.689-.008,4.261.128,6,0v1C232.691,183.432,230.178,183.293,228.459,183.3Zm-5,0h-1c-1.594-.133-2.623.239-4,0v-2a37.491,37.491,0,0,0,4,1h1Zm16,0v-2c1.668-.227,3.277.332,5,0v1C242.714,182.638,241.151,183.071,239.459,183.3Zm-26-2a22.842,22.842,0,0,1-4-2c-.2-.114-.8.121-1,0l1-1c.189.114-.193-.108,0,0a24.049,24.049,0,0,0,4,2Zm-13,0-1-1a22.4,22.4,0,0,0,2-4h1A31.418,31.418,0,0,1,200.459,181.3Zm49,0v-2c1.622-.394,3.294-.512,5-1v1C252.735,179.794,251.1,180.9,249.459,181.3Zm10-3v-1c1.648-.534,3.369-1.42,5-2v1C262.817,176.884,261.119,177.763,259.459,178.3Zm-55-2a36.027,36.027,0,0,0-4-2l-1-1,1-1c.155.079-.153-.083,0,0a38.628,38.628,0,0,1,4,3Zm-24-2-1-1c1.142-1.118,2.93-1.4,5-2l1,1C183.553,172.859,181.432,173.348,180.459,174.3Zm15-2a26.3,26.3,0,0,0-5-1h0v-1c1.785-.044,3.251-.393,5,0Zm8-1h-1c.3-1.676.991-3.307,1-5h1C204.45,168.068,203.769,169.552,203.459,171.3Z" fill="#00c8b7"/>
          <path id="Tracé_633" data-name="Tracé 633" d="M269.459,174.3v-1c.807-.308,1.2-.685,2-1l1,1C271.652,173.616,270.271,173.992,269.459,174.3Z" fill="#00c8b7"/>
        </g>
        <path id="Tracé_634" data-name="Tracé 634" d="M310.459,206.3c-.66,0-.935-.329-1-1-.069-.712.287-1.931,1-2a29.483,29.483,0,0,0,20-10,1.414,1.414,0,0,1,2,2,32.868,32.868,0,0,1-22,11C310.416,206.305,310.5,206.3,310.459,206.3Z" fill="#00c8b7"/>
        <g id="Groupe_36" data-name="Groupe 36">
          <g id="Groupe_35" data-name="Groupe 35">
            <path id="Tracé_635" data-name="Tracé 635" d="M294.459,205.3l-45,27-45-27c0-.022-.007.022,0,0,.037-.169,2.2-1.91,6-5h0c12.475-10.129,39-31,39-31s26.525,20.871,39,31c3.862,3.134,5.963,4.823,6,5C294.466,205.323,294.459,205.279,294.459,205.3Z" fill="#7a4c08"/>
            <g id="Groupe_33" data-name="Groupe 33">
              <path id="Tracé_636" data-name="Tracé 636" d="M268.459,147.3h-49c-4.181,0-8,2.819-8,7v74c0,4.181,3.819,7,8,7h61c4.181,0,8-2.819,8-7v-62Z" fill="#fff"/>
              <path id="Tracé_637" data-name="Tracé 637" d="M268.459,159.3a6.633,6.633,0,0,0,7,7h13l-20-19Z" fill="#e6e8e8"/>
              <rect id="Rectangle_27" data-name="Rectangle 27" width="22" height="22" rx="2.697" transform="translate(223.459 159.301)" fill="#82ebe3"/>
              <path id="Tracé_638" data-name="Tracé 638" d="M265.459,187.3h-40c-1.2,0-2,1.8-2,3h0a1.89,1.89,0,0,0,2,2h40c1.2,0,3-.8,3-2h0A3.854,3.854,0,0,0,265.459,187.3Z" fill="#d9dbdb"/>
              <path id="Tracé_639" data-name="Tracé 639" d="M265.459,198.3h-40a1.89,1.89,0,0,0-2,2h0c0,1.2.8,3,2,3h40a3.854,3.854,0,0,0,3-3h0C268.459,199.1,266.659,198.3,265.459,198.3Z" fill="#d9dbdb"/>
              <path id="Tracé_640" data-name="Tracé 640" d="M247.459,209.3h-22a1.89,1.89,0,0,0-2,2h0a1.89,1.89,0,0,0,2,2h22a1.89,1.89,0,0,0,2-2h0A1.89,1.89,0,0,0,247.459,209.3Z" fill="#d9dbdb"/>
            </g>
            <g id="Groupe_34" data-name="Groupe 34">
              <path id="Tracé_641" data-name="Tracé 641" d="M294.459,205.3v43c0,3.029-1.97,6-5,6h-80c-3.03,0-5-2.971-5-6v-43l45,27Z" fill="#ffb031"/>
              <path id="Tracé_642" data-name="Tracé 642" d="M293.459,252.3l-29-29-15,9-14-9-30,29a5.789,5.789,0,0,0,4,2h80A5.8,5.8,0,0,0,293.459,252.3Z" fill="#ff9433"/>
            </g>
          </g>
        </g>
        <g id="Groupe_39" data-name="Groupe 39">
          <g id="Groupe_38" data-name="Groupe 38">
            <path id="Tracé_643" data-name="Tracé 643" d="M303.459,146.3a26.912,26.912,0,0,0-24,25,26.011,26.011,0,0,0,5,17c1.275,1.836.857,3.935,0,6l-2,5,9-2a5.746,5.746,0,0,1,4,0c4.065,1.763,9.19,3.466,14,3,12.766-1.236,22.767-12.234,24-25C335.113,158.175,320.591,144.62,303.459,146.3Z" fill="#00c8b7"/>
            <g id="Groupe_37" data-name="Groupe 37">
              <path id="Tracé_644" data-name="Tracé 644" d="M307.459,186.3l1-1s-.968-3.292,4-8c2.956-2.8,3.241-4.782,3-7-.382-3.532-2.469-6.617-6-7a9.083,9.083,0,0,0-8,3c-4.709,4.967-8,4-8,4l-1,1Z" fill="#fff"/>
              <path id="Tracé_645" data-name="Tracé 645" d="M295.459,177.3c-1.18,1.61-.455,3.545,1,5s3.39,2.18,5,1Z" fill="#fff"/>
              <path id="Tracé_646" data-name="Tracé 646" d="M317.459,165.3h-1c-.724-1.15-1.843-1.284-3-2l1-1a2.121,2.121,0,0,1,3,3Z" fill="#fff"/>
            </g>
          </g>
          <path id="Tracé_647" data-name="Tracé 647" d="M305.459,145.3a24.375,24.375,0,0,1,17,23,22.689,22.689,0,0,1-23,23c-6.823,0-13.715-2.349-18-7,.675,1.477,2.082,2.679,3,4,1.275,1.836.857,3.935,0,6l-2,5,9-2a5.746,5.746,0,0,1,4,0c4.065,1.763,9.19,3.465,14,3,12.766-1.236,22.767-12.234,24-25A27.481,27.481,0,0,0,305.459,145.3Z" fill="#08b29d"/>
        </g>
        <path id="Tracé_648" data-name="Tracé 648" d="M164.459,123.3l6,13a1.762,1.762,0,0,1-1,2h0c-.7.3-1.705.7-2,0l-5-14c-.3-.717-.731-1.73,0-2h0A1.862,1.862,0,0,1,164.459,123.3Z" fill="#ffb031"/>
      </g>
    </g>
    <g id="Groupe_42" data-name="Groupe 42">
      <path id="Tracé_649" data-name="Tracé 649" d="M187.459,219.3a4,4,0,0,0,0,8c2.406,0,5-1.594,5-4S189.865,219.3,187.459,219.3Zm0,6c-.974,0-1-1.026-1-2s.026-2,1-2a2,2,0,0,1,0,4Z" fill="#baf4ee"/>
      <path id="Tracé_650" data-name="Tracé 650" d="M304.459,236.3c-2.407,0-4,2.594-4,5a4,4,0,0,0,8,0C308.459,238.9,306.865,236.3,304.459,236.3Zm0,6c-.974,0-2-.026-2-1a2,2,0,0,1,4,0C306.459,242.275,305.433,242.3,304.459,242.3Z" fill="#baf4ee"/>
      <path id="Tracé_651" data-name="Tracé 651" d="M340.459,169.3c-1.842,0-4,1.158-4,3s2.158,3,4,3a3,3,0,0,0,0-6Zm0,4c-.745,0-2-.254-2-1s1.255-1,2-1,1,.254,1,1S341.2,173.3,340.459,173.3Z" fill="#baf4ee"/>
      <path id="Tracé_652" data-name="Tracé 652" d="M281.459,115.3a4.388,4.388,0,0,0-4,4c0,1.948,2.052,3,4,3a2.7,2.7,0,0,0,3-3C284.459,117.353,283.406,115.3,281.459,115.3Zm0,5c-.789,0-1-.211-1-1s.211-2,1-2,1,1.212,1,2S282.247,120.3,281.459,120.3Z" fill="#baf4ee"/>
      <path id="Tracé_653" data-name="Tracé 653" d="M168.459,197.3a4,4,0,1,0,4,4A4.226,4.226,0,0,0,168.459,197.3Z" fill="#baf4ee"/>
      <path id="Tracé_654" data-name="Tracé 654" d="M317.459,210.3c-1.49,0-3,.511-3,2a3,3,0,0,0,6,0C320.459,210.812,318.948,210.3,317.459,210.3Z" fill="#baf4ee"/>
      <path id="Tracé_655" data-name="Tracé 655" d="M228.459,116.3a4,4,0,1,0,4,4A4.042,4.042,0,0,0,228.459,116.3Z" fill="#baf4ee"/>
      <path id="Tracé_656" data-name="Tracé 656" d="M249.459,259.3a3,3,0,1,0,3,3A3.094,3.094,0,0,0,249.459,259.3Z" fill="#baf4ee"/>
      <path id="Tracé_657" data-name="Tracé 657" d="M304.459,131.3c-1.862,0-3,2.138-3,4a2.772,2.772,0,0,0,3,3c1.862,0,4-1.138,4-3A4.544,4.544,0,0,0,304.459,131.3Z" fill="#baf4ee"/>
      <circle id="Ellipse_19" data-name="Ellipse 19" cx="2" cy="2" r="2" transform="translate(183.459 158.301)" fill="#baf4ee"/>
      <path id="Tracé_658" data-name="Tracé 658" d="M341.459,152.3a3,3,0,1,0,3,3A2.825,2.825,0,0,0,341.459,152.3Z" fill="#baf4ee"/>
      <circle id="Ellipse_20" data-name="Ellipse 20" cx="2" cy="2" r="2" transform="translate(164.459 169.301)" fill="#baf4ee"/>
      <path id="Tracé_659" data-name="Tracé 659" d="M254.459,109.3l1-1a1.636,1.636,0,0,0,0-2c-.454-.455-.546-.455-1,0l-2,2-1-2c-.455-.455-.546-.455-1,0a1.636,1.636,0,0,0,0,2l1,1-1,2c-.455.455-.455.545,0,1s.545.455,1,0l1-1,2,1c.454.455.546.455,1,0s.455-.545,0-1Z" fill="#baf4ee"/>
      <path id="Tracé_660" data-name="Tracé 660" d="M165.459,149.3l1-1a1.414,1.414,0,0,0-2-2l-1,1-1-1a1.414,1.414,0,0,0-2,2l2,1-2,1a1.414,1.414,0,0,0,2,2l1-1,1,1a1.414,1.414,0,0,0,2-2Z" fill="#baf4ee"/>
      <path id="Tracé_661" data-name="Tracé 661" d="M320.459,229.3l1-1c.385-.386.385-.615,0-1a1.876,1.876,0,0,0-2,0l-1,1-1-1c-.386-.385-.615-.385-1,0s-.386.614,0,1l1,1-1,1a1.872,1.872,0,0,0,0,2c.385.385.614.385,1,0l1-2,1,2a1.414,1.414,0,0,0,2-2Z" fill="#baf4ee"/>
    </g>
  </g>
</svg>
