<svg xmlns="http://www.w3.org/2000/svg" width="25" height="26" viewBox="0 0 25 26">
  <g id="Icon_feather-send" data-name="Icon feather-send" transform="translate(0.555 1.051)">
    <path id="Tracé_693" data-name="Tracé 693" d="M16.193,16.949a1,1,0,0,1-.707-1.707l13-13A1,1,0,0,1,29.9,3.656l-13,13A1,1,0,0,1,16.193,16.949Z" transform="translate(-5.748 -3)" fill="#fff"/>
    <path id="Tracé_694" data-name="Tracé 694" d="M26.445,1.949a1,1,0,0,1,.949,1.316l-8,24a1,1,0,0,1-1.859.1L12.681,16.685,3,11.843A1,1,0,0,1,3.116,10l23-8A1,1,0,0,1,26.445,1.949ZM18.3,24.217,24.853,4.561,6.012,11.114l7.88,3.94a1,1,0,0,1,.463.481Z" transform="translate(-3 -3)" fill="#fff"/>
  </g>
</svg>
