<svg xmlns="http://www.w3.org/2000/svg" width="22" height="30" viewBox="0 0 22 30">
  <path id="Icon_simple-stripe" data-name="Icon simple-stripe" d="M17.859,11c-2.715-1.007-4-1.771-4-3,0-1.039,1.477-1,3-1a15.5,15.5,0,0,1,7,2l1-7a20.327,20.327,0,0,0-9-2c-3.122,0-5.144.478-7,2a9.034,9.034,0,0,0-3,7c0,5.049,2.989,7.176,8,9,3.231,1.15,4,1.739,4,3,0,1.225-1.108,2-3,2-2.344,0-6.469-.515-9-2l-1,7c2.176,1.224,6.839,2,11,2,3.3,0,6.144-.514,8-2,2.08-1.631,3-3.88,3-7,0-5.16-3.912-8.182-9-10Z" transform="translate(-4.859)" fill="#35558a"/>
</svg>
