<svg viewBox="0 0 500 500" xmlns="http://www.w3.org/2000/svg"><g transform="matrix(5,0,0,5,0,0)"><path d="M9.427 50.000 A40.000 40.000 0 1 0 89.427 50.000 A40.000 40.000 0 1 0 9.427 50.000 Z" fill="#e8f4fa" stroke="#daedf7"></path><path d="M49.428,90A39.854,39.854,0,0,0,76.434,79.506a18.6,18.6,0,0,0-35.2,8.615V89.16A40.191,40.191,0,0,0,49.428,90Z" fill="#bf8df2"></path><path d="M59.875,69.308A18.82,18.82,0,0,0,41.236,88.121V89.16l.337.068a18.555,18.555,0,0,1,32.92-8.054q1-.8,1.941-1.668A18.856,18.856,0,0,0,59.875,69.308Z" fill="#dabff5"></path><path d="M49.428,90A39.854,39.854,0,0,0,76.434,79.506a18.6,18.6,0,0,0-35.2,8.615V89.16A40.191,40.191,0,0,0,49.428,90Z" fill="none" stroke="#45413c" stroke-linecap="round" stroke-linejoin="round"></path><path d="M48.482 89.989L48.471 85.994" fill="none" stroke="#45413c" stroke-linecap="round" stroke-linejoin="round"></path><path d="M67,78.737a.5.5,0,0,0,.707-.523l-.935-6.547A5.618,5.618,0,0,0,64.219,67.9H55.532a5.622,5.622,0,0,0-2.55,3.766l-.935,6.547a.5.5,0,0,0,.708.523l7.12-3.339Z" fill="#bf8df2" stroke="#45413c" stroke-linecap="round" stroke-linejoin="round"></path><path d="M55.666,66.1v5.9a1.171,1.171,0,0,0,.521.973L59.875,75.4l3.689-2.432a1.17,1.17,0,0,0,.52-.973V66.1Z" fill="#ffcebf"></path><path d="M55.666,66.1v3.628a14.943,14.943,0,0,0,8.418,0V66.1Z" fill="#ffb59e"></path><path d="M55.666,66.1v5.9a1.171,1.171,0,0,0,.521.973L59.875,75.4l3.689-2.432a1.17,1.17,0,0,0,.52-.973V66.1Z" fill="none" stroke="#45413c" stroke-linecap="round" stroke-linejoin="round"></path><path d="M9.427 50.000 A40.000 40.000 0 1 0 89.427 50.000 A40.000 40.000 0 1 0 9.427 50.000 Z" fill="none" stroke="#daedf7"></path><path d="M9.546 34.874 A23.181 23.181 0 1 0 55.908 34.874 A23.181 23.181 0 1 0 9.546 34.874 Z" fill="#4acfff"></path><path d="M32.727,23.149a7.458,7.458,0,0,0-7.459,7.458v3.73a7.459,7.459,0,0,0,14.917,0v-3.73a7.458,7.458,0,0,0-7.458-7.458" fill="#e5f8ff"></path><path d="M32.727,23.149a7.484,7.484,0,0,0-1,.066" fill="none" stroke="#45413c" stroke-linecap="round" stroke-linejoin="round"></path><path d="M28.947,24.176a7.453,7.453,0,0,0-3.679,6.431v3.73a7.459,7.459,0,0,0,14.917,0v-3.73a7.462,7.462,0,0,0-5.017-7.05" fill="none" stroke="#45413c" stroke-linecap="round" stroke-linejoin="round"></path><path d="M33.725,23.215a7.48,7.48,0,0,0-1-.066" fill="none" stroke="#45413c" stroke-linecap="round" stroke-linejoin="round"></path><path d="M48.223,52.114a23.181,23.181,0,0,1-30.985.007A16.78,16.78,0,0,1,48.205,52.1" fill="#e5f8ff"></path><path d="M48.223,52.114q-.372.335-.757.653" fill="none" stroke="#45413c" stroke-linecap="round" stroke-linejoin="round"></path><path d="M45.117,54.469a23.193,23.193,0,0,1-25.971-.807" fill="none" stroke="#45413c" stroke-linecap="round" stroke-linejoin="round"></path><path d="M18,52.773q-.386-.318-.757-.652.192-.462.411-.908" fill="none" stroke="#45413c" stroke-linecap="round" stroke-linejoin="round"></path><path d="M19.173,48.687a16.775,16.775,0,0,1,27.905,1.2" fill="none" stroke="#45413c" stroke-linecap="round" stroke-linejoin="round"></path><path d="M47.792,51.187q.221.447.413.908" fill="none" stroke="#45413c" stroke-linecap="round" stroke-linejoin="round"></path><path d="M9.546 34.874 A23.181 23.181 0 1 0 55.908 34.874 A23.181 23.181 0 1 0 9.546 34.874 Z" fill="none" stroke="#45413c" stroke-linecap="round" stroke-linejoin="round"></path><path d="M80.458,28.062a.265.265,0,0,1,.186-.185l3.5-.954a.265.265,0,0,0,0-.511l-3.5-.953a.266.266,0,0,1-.186-.187l-.953-3.5a.266.266,0,0,0-.512,0l-.953,3.5a.264.264,0,0,1-.186.187l-3.5.954a.265.265,0,0,0,0,.511l3.5.953a.266.266,0,0,1,.186.186l.954,3.5a.265.265,0,0,0,.511,0Z" fill="#ffe500" stroke="#45413c" stroke-linecap="round" stroke-linejoin="round"></path><path d="M32.294,75.449a.265.265,0,0,1,.186-.186l3.5-.954a.265.265,0,0,0,0-.511l-3.5-.953a.266.266,0,0,1-.186-.186l-.954-3.5a.265.265,0,0,0-.511,0l-.954,3.5a.263.263,0,0,1-.185.186l-3.5.954a.265.265,0,0,0,0,.511l3.5.953a.266.266,0,0,1,.186.186l.954,3.5a.265.265,0,0,0,.511,0Z" fill="#ffe500" stroke="#45413c" stroke-linecap="round" stroke-linejoin="round"></path><path d="M87.745,51.365a1.585,1.585,0,0,1,1.116-1.115l1.516-.414a.265.265,0,0,0,0-.512l-1.516-.413A1.588,1.588,0,0,1,87.745,47.8l-.414-1.517a.265.265,0,0,0-.511,0L86.406,47.8a1.588,1.588,0,0,1-1.115,1.115l-1.517.414a.265.265,0,0,0,0,.511l1.517.414a1.592,1.592,0,0,1,1.116,1.115l.414,1.517a.265.265,0,0,0,.511,0Z" fill="#ffe500" stroke="#45413c" stroke-linecap="round" stroke-linejoin="round"></path><path d="M72,52.669V49.648a12.087,12.087,0,0,0-24.173,0v3.021a2.418,2.418,0,0,0,0,4.835c.051,0,.1-.012.148-.015a12.07,12.07,0,0,0,23.876,0c.051,0,.1.015.149.015a2.418,2.418,0,0,0,0-4.835Z" fill="#ffcebf" stroke="#45413c" stroke-linecap="round" stroke-linejoin="round"></path><path d="M51.451 57.211 A1.511 1.511 0 1 0 54.473 57.211 A1.511 1.511 0 1 0 51.451 57.211 Z" fill="#ffb59e"></path><path d="M65.350 57.211 A1.511 1.511 0 1 0 68.372 57.211 A1.511 1.511 0 1 0 65.350 57.211 Z" fill="#ffb59e"></path><path d="M56.89,53.283a1.97,1.97,0,0,0-3.636,0" fill="none" stroke="#45413c" stroke-linecap="round" stroke-linejoin="round"></path><path d="M66.569,53.274a1.97,1.97,0,0,0-3.636,0" fill="none" stroke="#45413c" stroke-linecap="round" stroke-linejoin="round"></path><path d="M69.186,58.142c-1.242,2.9-1.305,3.634-2.111,3.835l-.917.23a1.088,1.088,0,0,1-1.3-.712c-.8-1.855-2.174-3.387-4.109-3.387H59.069c-1.935,0-3.309,1.532-4.109,3.387a1.089,1.089,0,0,1-1.3.712l-.916-.23c-.806-.2-.869-.936-2.111-3.835-.405-.944-1.592-.645-2.664-.653,0,7.81,6.82,12.1,11.938,12.1s11.938-4.291,11.938-12.1C70.778,57.5,69.591,57.2,69.186,58.142Z" fill="#ffdf3d" stroke="#45413c" stroke-linecap="round" stroke-linejoin="round"></path><path d="M47.422,52.893a1.237,1.237,0,0,1-1.4-.6,14.49,14.49,0,0,1-1.22-6.417,12,12,0,0,1,12-12c3.272,0,9.817-.79,12,2.119,9.568,2.126,6.236,18.489,5.26,17.513a2.3,2.3,0,0,0-1.624-.725,2.543,2.543,0,0,0-1.648.487A18.364,18.364,0,0,1,67.724,41.52c0,3.274-7.169,6.108-13.221,6.108a13.949,13.949,0,0,1-4.351-.618,17.013,17.013,0,0,1-.514,6.264A2.723,2.723,0,0,0,47.422,52.893Z" fill="#ffdf3d"></path><path d="M56.8,37.226c3.272,0,9.817-.79,12,2.119,4.627,1.028,6.237,5.385,6.556,9.5C75.706,44.108,74.734,37.317,68.8,36c-2.181-2.908-8.726-2.118-12-2.118a12,12,0,0,0-12,12c0,.646.023,1.3.08,1.957A12,12,0,0,1,56.8,37.226Z" fill="#ffef9e"></path><path d="M57.506,61.13a5.1,5.1,0,0,0,4.823-.006" fill="none" stroke="#45413c" stroke-linecap="round" stroke-linejoin="round"></path><path d="M47.422,52.893a1.237,1.237,0,0,1-1.4-.6,14.49,14.49,0,0,1-1.22-6.417,12,12,0,0,1,12-12c3.272,0,9.817-.79,12,2.119,9.568,2.126,6.236,18.489,5.26,17.513a2.3,2.3,0,0,0-1.624-.725,2.543,2.543,0,0,0-1.648.487A18.364,18.364,0,0,1,67.724,41.52c0,3.274-7.169,6.108-13.221,6.108a13.949,13.949,0,0,1-4.351-.618,17.013,17.013,0,0,1-.514,6.264A2.723,2.723,0,0,0,47.422,52.893Z" fill="none" stroke="#45413c" stroke-linecap="round" stroke-linejoin="round"></path></g></svg>