<svg viewBox="0 0 500 500" xmlns="http://www.w3.org/2000/svg"><g transform="matrix(5,0,0,5,0,0)"><path d="M9.427 50.000 A40.000 40.000 0 1 0 89.427 50.000 A40.000 40.000 0 1 0 9.427 50.000 Z" fill="#e8f4fa" stroke="#daedf7"></path><path d="M49.428,90A39.854,39.854,0,0,0,76.434,79.506a18.6,18.6,0,0,0-35.2,8.615V89.16A40.191,40.191,0,0,0,49.428,90Z" fill="#00dba8"></path><path d="M59.875,69.308A18.82,18.82,0,0,0,41.236,88.121V89.16l.337.068a18.555,18.555,0,0,1,32.92-8.054q1-.8,1.941-1.668A18.856,18.856,0,0,0,59.875,69.308Z" fill="#00f5bc"></path><path d="M49.428,90A39.854,39.854,0,0,0,76.434,79.506a18.6,18.6,0,0,0-35.2,8.615V89.16A40.191,40.191,0,0,0,49.428,90Z" fill="none" stroke="#45413c" stroke-linecap="round" stroke-linejoin="round"></path><path d="M48.482 89.989L48.471 85.994" fill="none" stroke="#45413c" stroke-linecap="round" stroke-linejoin="round"></path><path d="M67,78.737a.5.5,0,0,0,.707-.523l-.935-6.547A5.618,5.618,0,0,0,64.219,67.9H55.532a5.622,5.622,0,0,0-2.55,3.766l-.935,6.547a.5.5,0,0,0,.708.523l7.12-3.339Z" fill="#00dba8" stroke="#45413c" stroke-linecap="round" stroke-linejoin="round"></path><path d="M55.666,66.1v5.9a1.171,1.171,0,0,0,.521.973L59.875,75.4l3.689-2.432a1.17,1.17,0,0,0,.52-.973V66.1Z" fill="#d18660"></path><path d="M55.666,66.1v3.628a14.943,14.943,0,0,0,8.418,0V66.1Z" fill="#bd704a"></path><path d="M55.666,66.1v5.9a1.171,1.171,0,0,0,.521.973L59.875,75.4l3.689-2.432a1.17,1.17,0,0,0,.52-.973V66.1Z" fill="none" stroke="#45413c" stroke-linecap="round" stroke-linejoin="round"></path><path d="M9.427 50.000 A40.000 40.000 0 1 0 89.427 50.000 A40.000 40.000 0 1 0 9.427 50.000 Z" fill="none" stroke="#daedf7"></path><path d="M9.546 34.874 A23.181 23.181 0 1 0 55.908 34.874 A23.181 23.181 0 1 0 9.546 34.874 Z" fill="#4acfff"></path><path d="M32.727,23.149a7.458,7.458,0,0,0-7.459,7.458v3.73a7.459,7.459,0,0,0,14.917,0v-3.73a7.458,7.458,0,0,0-7.458-7.458" fill="#e5f8ff"></path><path d="M32.726,23.149a7.48,7.48,0,0,0-1,.066" fill="none" stroke="#45413c" stroke-linecap="round" stroke-linejoin="round"></path><path d="M28.947,24.176a7.453,7.453,0,0,0-3.679,6.431v3.73a7.459,7.459,0,0,0,14.917,0v-3.73a7.462,7.462,0,0,0-5.017-7.05" fill="none" stroke="#45413c" stroke-linecap="round" stroke-linejoin="round"></path><path d="M33.725,23.215a7.484,7.484,0,0,0-1-.066" fill="none" stroke="#45413c" stroke-linecap="round" stroke-linejoin="round"></path><path d="M48.223,52.114a23.181,23.181,0,0,1-30.985.007A16.78,16.78,0,0,1,48.205,52.1" fill="#e5f8ff"></path><path d="M48.223,52.114q-.372.335-.758.653" fill="none" stroke="#45413c" stroke-linecap="round" stroke-linejoin="round"></path><path d="M45.117,54.469a23.193,23.193,0,0,1-25.971-.807" fill="none" stroke="#45413c" stroke-linecap="round" stroke-linejoin="round"></path><path d="M18,52.773q-.386-.318-.757-.652.192-.462.411-.908" fill="none" stroke="#45413c" stroke-linecap="round" stroke-linejoin="round"></path><path d="M19.172,48.687a16.776,16.776,0,0,1,27.906,1.2" fill="none" stroke="#45413c" stroke-linecap="round" stroke-linejoin="round"></path><path d="M47.792,51.187q.221.447.413.908" fill="none" stroke="#45413c" stroke-linecap="round" stroke-linejoin="round"></path><path d="M9.546 34.874 A23.181 23.181 0 1 0 55.908 34.874 A23.181 23.181 0 1 0 9.546 34.874 Z" fill="none" stroke="#45413c" stroke-linecap="round" stroke-linejoin="round"></path><path d="M72,52.687V49.666a12.085,12.085,0,0,0-24.17,0v3.021a2.418,2.418,0,0,0,0,4.835c.05,0,.1-.013.148-.016a12.069,12.069,0,0,0,23.874,0c.05,0,.1.016.148.016a2.418,2.418,0,0,0,0-4.835Z" fill="#d18660" stroke="#45413c" stroke-linecap="round" stroke-linejoin="round"></path><path d="M56.271,60.9a5.271,5.271,0,0,0,7.271,0" fill="none" stroke="#45413c" stroke-linecap="round" stroke-linejoin="round"></path><path d="M51.456 57.824 A1.511 1.511 0 1 0 54.478 57.824 A1.511 1.511 0 1 0 51.456 57.824 Z" fill="#bd704a"></path><path d="M65.354 57.824 A1.511 1.511 0 1 0 68.376 57.824 A1.511 1.511 0 1 0 65.354 57.824 Z" fill="#bd704a"></path><path d="M66.563,53.9a1.97,1.97,0,0,0-3.636,0" fill="none" stroke="#45413c" stroke-linecap="round" stroke-linejoin="round"></path><path d="M56.905,53.9a1.97,1.97,0,0,0-3.636,0" fill="none" stroke="#45413c" stroke-linecap="round" stroke-linejoin="round"></path><path d="M60.522,36.372h0A13.294,13.294,0,0,0,47.228,49.666v3.021h.039a4.192,4.192,0,0,0,3.99-2.9L52.289,46.6a1.208,1.208,0,0,1,1.525-.773,26.04,26.04,0,0,0,6.708,1.421c2.908,0,7.856-1.813,7.856-1.813l1.46,4.382a4.191,4.191,0,0,0,3.978,2.869h0V49.666A13.294,13.294,0,0,0,60.522,36.372Z" fill="#724f3d"></path><path d="M60.522,36.372A13.294,13.294,0,0,0,47.228,49.666v3.021a13.294,13.294,0,0,1,26.588,0V49.666A13.294,13.294,0,0,0,60.522,36.372Z" fill="#a86c4d"></path><path d="M60.522,36.372h0A13.294,13.294,0,0,0,47.228,49.666v3.021h.039a4.192,4.192,0,0,0,3.99-2.9L52.289,46.6a1.208,1.208,0,0,1,1.525-.773,26.04,26.04,0,0,0,6.708,1.421c2.908,0,7.856-1.813,7.856-1.813l1.46,4.382a4.191,4.191,0,0,0,3.978,2.869h0V49.666A13.294,13.294,0,0,0,60.522,36.372Z" fill="none" stroke="#45413c" stroke-linecap="round" stroke-linejoin="round"></path><path d="M75.024,52.687S70.19,53.9,66.565,47.853c0,0-.605,3.022-3.022,3.022,0,0,1.813-3.626-3.021-3.626a6.647,6.647,0,1,1,0-13.294s9.668,0,13.9,8.46C74.42,42.415,76.233,46.04,75.024,52.687Z" fill="#724f3d"></path><path d="M60.522,37.581s9.668,0,13.9,8.459a12.364,12.364,0,0,1,.941,4.07c.4-5-.941-7.695-.941-7.695-4.23-8.46-13.9-8.46-13.9-8.46a6.635,6.635,0,0,0-6.391,8.46A6.64,6.64,0,0,1,60.522,37.581Z" fill="#a86c4d"></path><path d="M75.024,52.687S70.19,53.9,66.565,47.853c0,0-.605,3.022-3.022,3.022,0,0,1.813-3.626-3.021-3.626a6.647,6.647,0,1,1,0-13.294s9.668,0,13.9,8.46C74.42,42.415,76.233,46.04,75.024,52.687Z" fill="none" stroke="#45413c" stroke-linecap="round" stroke-linejoin="round"></path><path d="M80.458,28.062a.265.265,0,0,1,.186-.185l3.5-.954a.265.265,0,0,0,0-.511l-3.5-.953a.266.266,0,0,1-.186-.187l-.953-3.5a.266.266,0,0,0-.512,0l-.953,3.5a.264.264,0,0,1-.186.187l-3.5.954a.265.265,0,0,0,0,.511l3.5.953a.266.266,0,0,1,.186.186l.954,3.5a.265.265,0,0,0,.511,0Z" fill="#ffe500" stroke="#45413c" stroke-linecap="round" stroke-linejoin="round"></path><path d="M32.294,75.449a.265.265,0,0,1,.186-.186l3.5-.954a.265.265,0,0,0,0-.511l-3.5-.953a.266.266,0,0,1-.186-.186l-.954-3.5a.265.265,0,0,0-.511,0l-.954,3.5a.263.263,0,0,1-.185.186l-3.5.954a.265.265,0,0,0,0,.511l3.5.953a.266.266,0,0,1,.186.186l.954,3.5a.265.265,0,0,0,.511,0Z" fill="#ffe500" stroke="#45413c" stroke-linecap="round" stroke-linejoin="round"></path><path d="M87.745,51.365a1.585,1.585,0,0,1,1.116-1.115l1.516-.414a.265.265,0,0,0,0-.512l-1.516-.413A1.588,1.588,0,0,1,87.745,47.8l-.414-1.517a.265.265,0,0,0-.511,0L86.406,47.8a1.588,1.588,0,0,1-1.115,1.115l-1.517.414a.265.265,0,0,0,0,.511l1.517.414a1.592,1.592,0,0,1,1.116,1.115l.414,1.517a.265.265,0,0,0,.511,0Z" fill="#ffe500" stroke="#45413c" stroke-linecap="round" stroke-linejoin="round"></path></g></svg>