<svg xmlns="http://www.w3.org/2000/svg" width="81" height="81" viewBox="0 0 81 81">
  <g id="cardStripe" transform="translate(-9.5 -9.5)">
    <path id="Tracé_423" data-name="Tracé 423" d="M10,50A40,40,0,1,0,50,10,40,40,0,0,0,10,50Z" fill="#e8f4fa" stroke="#daedf7" stroke-width="1"/>
    <path id="Tracé_424" data-name="Tracé 424" d="M80.87,71.606a3.308,3.308,0,0,1-3.308,3.308H22.44a3.308,3.308,0,0,1-3.308-3.308V32.8H80.87Z" fill="#4acfff"/>
    <path id="Tracé_425" data-name="Tracé 425" d="M19.13,32.8H80.868v3.759H19.13Z" fill="#00b8f0"/>
    <path id="Tracé_426" data-name="Tracé 426" d="M80.87,26.188a3.308,3.308,0,0,0-3.308-3.307H22.44a3.308,3.308,0,0,0-3.308,3.307V32.8H80.87Z" fill="#fff" stroke="#45413c" stroke-linecap="round" stroke-linejoin="round" stroke-width="1"/>
    <path id="Tracé_427" data-name="Tracé 427" d="M22.439,27.842a1.654,1.654,0,1,0,1.654-1.654,1.654,1.654,0,0,0-1.654,1.654Z" fill="#ff6242"/>
    <path id="Tracé_428" data-name="Tracé 428" d="M27.952,27.842a1.654,1.654,0,1,0,1.654-1.654A1.654,1.654,0,0,0,27.952,27.842Z" fill="#ffe500"/>
    <path id="Tracé_429" data-name="Tracé 429" d="M33.464,27.842a1.654,1.654,0,1,0,1.654-1.654,1.654,1.654,0,0,0-1.654,1.654Z" fill="#6dd627"/>
    <path id="Tracé_430" data-name="Tracé 430" d="M80.87,71.606a3.308,3.308,0,0,1-3.308,3.308H22.44a3.308,3.308,0,0,1-3.308-3.308V32.8H80.87Z" fill="none" stroke="#45413c" stroke-linecap="round" stroke-linejoin="round" stroke-width="1"/>
    <path id="Tracé_431" data-name="Tracé 431" d="M31.258,52.864A17.64,17.64,0,1,0,48.9,35.224a17.64,17.64,0,0,0-17.64,17.64Z" fill="#00b8f0"/>
    <path id="Tracé_432" data-name="Tracé 432" d="M37.009,84.125c0,.913,5.43,1.654,12.128,1.654s12.128-.741,12.128-1.654-5.43-1.654-12.128-1.654-12.128.741-12.128,1.654Z" fill="#525252" opacity="0.15"/>
    <path id="Tracé_433" data-name="Tracé 433" d="M34.014,52.864A14.884,14.884,0,1,0,48.9,37.98,14.884,14.884,0,0,0,34.014,52.864Z" fill="#ffe500"/>
    <path id="Tracé_434" data-name="Tracé 434" d="M48.9,37.98A14.884,14.884,0,0,0,38.373,63.388L59.422,42.34A14.835,14.835,0,0,0,48.9,37.98Z" fill="#fff48c"/>
    <path id="Tracé_435" data-name="Tracé 435" d="M34.014,52.864A14.884,14.884,0,1,0,48.9,37.98,14.884,14.884,0,0,0,34.014,52.864Z" fill="none" stroke="#45413c" stroke-linecap="round" stroke-linejoin="round" stroke-width="1"/>
    <path id="Tracé_436" data-name="Tracé 436" d="M34.014,52.864A14.884,14.884,0,1,0,48.9,37.98,14.884,14.884,0,0,0,34.014,52.864Z" fill="none" stroke="#45413c" stroke-linecap="round" stroke-linejoin="round" stroke-width="1"/>
    <path id="Tracé_437" data-name="Tracé 437" d="M37.114,52.864A11.783,11.783,0,1,0,48.9,41.081,11.783,11.783,0,0,0,37.114,52.864Z" fill="none" stroke="#ebcb00" stroke-linecap="round" stroke-linejoin="round" stroke-width="1"/>
    <path id="Tracé_438" data-name="Tracé 438" d="M52.618,49.142a3.721,3.721,0,0,0-3.721-3.72h-.271a3.45,3.45,0,0,0-1.543,6.535l3.629,1.813A3.45,3.45,0,0,1,49.169,60.3H48.9a3.721,3.721,0,0,1-3.72-3.721" fill="none" stroke="#45413c" stroke-linecap="round" stroke-linejoin="round" stroke-width="1"/>
    <path id="Tracé_439" data-name="Tracé 439" d="M48.9,45.422v-1.86" fill="none" stroke="#45413c" stroke-linecap="round" stroke-linejoin="round" stroke-width="1"/>
    <path id="Tracé_440" data-name="Tracé 440" d="M48.9,62.165v-1.86" fill="none" stroke="#45413c" stroke-linecap="round" stroke-linejoin="round" stroke-width="1"/>
    <path id="Tracé_441" data-name="Tracé 441" d="M51.151,31.058c0,1.444-1.17,4.712-2.614,4.712s-2.614-3.268-2.614-4.712a2.614,2.614,0,1,1,5.228,0Z" fill="#fff" stroke="#00658a" stroke-linecap="round" stroke-linejoin="round" stroke-width="1"/>
    <path id="Tracé_442" data-name="Tracé 442" d="M31.046,39.846c1.251.722,3.5,3.37,2.774,4.62s-4.138.63-5.388-.092a2.614,2.614,0,1,1,2.614-4.528Z" fill="#fff" stroke="#00658a" stroke-linecap="round" stroke-linejoin="round" stroke-width="1"/>
    <path id="Tracé_443" data-name="Tracé 443" d="M28.6,61.652c1.251-.722,4.666-1.343,5.388-.092s-1.523,3.9-2.774,4.619A2.614,2.614,0,1,1,28.6,61.652Z" fill="#fff" stroke="#00658a" stroke-linecap="round" stroke-linejoin="round" stroke-width="1"/>
    <path id="Tracé_444" data-name="Tracé 444" d="M46.267,74.669c0-1.444,1.171-4.712,2.615-4.712S51.5,73.225,51.5,74.669a2.615,2.615,0,1,1-5.23,0Z" fill="#fff" stroke="#00658a" stroke-linecap="round" stroke-linejoin="round" stroke-width="1"/>
    <path id="Tracé_445" data-name="Tracé 445" d="M68.815,44.076c-1.251.722-4.666,1.342-5.388.092s1.523-3.9,2.773-4.62a2.614,2.614,0,0,1,2.615,4.528Z" fill="#fff" stroke="#00658a" stroke-linecap="round" stroke-linejoin="round" stroke-width="1"/>
    <path id="Tracé_446" data-name="Tracé 446" d="M55.1,56.541a.55.55,0,0,0-.671.671l3.4,12.92a.549.549,0,0,0,.92.249l3.206-3.207,4.272,4.271a.547.547,0,0,0,.776,0l2.33-2.329a.549.549,0,0,0,0-.777l-4.271-4.271,3.883-3.883Z" fill="#525252" opacity="0.3"/>
    <path id="Tracé_447" data-name="Tracé 447" d="M57.03,51.966a1.1,1.1,0,0,0-1.346,1.346L58.6,64.384a1.1,1.1,0,0,0,1.846.5l2.526-2.526,3.88,3.88a1.1,1.1,0,0,0,1.559,0l1.547-1.547a1.1,1.1,0,0,0,0-1.559l-3.88-3.88L68.6,56.725a1.1,1.1,0,0,0-.5-1.846Z" fill="#fff" stroke="#45413c" stroke-linecap="round" stroke-linejoin="round" stroke-width="1"/>
  </g>
</svg>
