<svg xmlns="http://www.w3.org/2000/svg" width="81" height="81" viewBox="0 0 81 81">
  <g id="cardTheme" transform="translate(-9.5 -9.5)">
    <path id="Tracé_448" data-name="Tracé 448" d="M10,50A40,40,0,1,0,50,10,40,40,0,0,0,10,50Z" fill="#e8f4fa" stroke="#daedf7" stroke-width="1"/>
    <path id="Tracé_449" data-name="Tracé 449" d="M77.714,52.286a2,2,0,0,1,1.98,2.284,29.7,29.7,0,0,1-5.676,13.676A2,2,0,0,1,71,68.46l-5.016-5.016a2,2,0,0,1-.24-2.535,18.854,18.854,0,0,0,2.9-7,2,2,0,0,1,1.964-1.619Z" fill="#00dfeb" stroke="#45413c" stroke-width="1"/>
    <path id="Tracé_450" data-name="Tracé 450" d="M68.174,71.29a2,2,0,0,1-.214,3.01,29.693,29.693,0,0,1-13.676,5.68A2,2,0,0,1,52,78V70.9a2,2,0,0,1,1.622-1.961,18.86,18.86,0,0,0,7-2.9,2,2,0,0,1,2.534.243Z" fill="#6dd627" stroke="#45413c" stroke-width="1"/>
    <path id="Tracé_451" data-name="Tracé 451" d="M46.381,68.936A2,2,0,0,1,48,70.9V78a2,2,0,0,1-2.284,1.98A29.693,29.693,0,0,1,32.04,74.3a2,2,0,0,1-.214-3.014l5.015-5.015a2,2,0,0,1,2.534-.243,18.85,18.85,0,0,0,7.006,2.908Z" fill="#ffe500" stroke="#45413c" stroke-width="1"/>
    <path id="Tracé_452" data-name="Tracé 452" d="M45.716,20.592A2,2,0,0,1,48,22.572v7.1a2,2,0,0,1-1.622,1.961,18.843,18.843,0,0,0-7,2.9,2,2,0,0,1-2.534-.244l-5.015-5.014a2,2,0,0,1,.214-3.014,29.693,29.693,0,0,1,13.673-5.669Z" fill="#ff6196" stroke="#45413c" stroke-width="1"/>
    <path id="Tracé_453" data-name="Tracé 453" d="M34.011,37.127a2,2,0,0,1,.243,2.534,18.85,18.85,0,0,0-2.9,7.006,2,2,0,0,1-1.964,1.619h-7.1A2,2,0,0,1,20.306,46a29.693,29.693,0,0,1,5.676-13.676A2,2,0,0,1,29,32.112Z" fill="#ff6242" stroke="#45413c" stroke-width="1"/>
    <path id="Tracé_454" data-name="Tracé 454" d="M34.254,60.911a2,2,0,0,1-.243,2.534L29,68.46a2,2,0,0,1-3.014-.214,29.7,29.7,0,0,1-5.68-13.676,2,2,0,0,1,1.98-2.284h7.1A2,2,0,0,1,31.35,53.9,18.85,18.85,0,0,0,34.254,60.911Z" fill="#ff8a14" stroke="#45413c" stroke-width="1"/>
    <path id="Tracé_455" data-name="Tracé 455" d="M39.75,85.5c0,.828,4.925,1.5,11,1.5s11-.672,11-1.5-4.925-1.5-11-1.5S39.75,84.672,39.75,85.5Z" fill="#45413c" opacity="0.15"/>
    <path id="Tracé_456" data-name="Tracé 456" d="M46.774,66.859a3.45,3.45,0,0,1-6.9,0c0-1.5,2.143-4.494,3.051-5.694a.5.5,0,0,1,.8,0C44.631,62.365,46.774,65.357,46.774,66.859Z" fill="#00b8f0"/>
    <path id="Tracé_457" data-name="Tracé 457" d="M43.324,68.054A3.451,3.451,0,0,1,40.1,65.826a3.159,3.159,0,0,0-.223,1.033,3.45,3.45,0,0,0,6.9,0,3.159,3.159,0,0,0-.223-1.033,3.451,3.451,0,0,1-3.23,2.228Z" fill="#009fd9"/>
    <path id="Tracé_458" data-name="Tracé 458" d="M46.774,66.859a3.45,3.45,0,0,1-6.9,0c0-1.5,2.143-4.494,3.051-5.694a.5.5,0,0,1,.8,0C44.631,62.365,46.774,65.357,46.774,66.859Z" fill="none" stroke="#45413c" stroke-linecap="round" stroke-linejoin="round" stroke-width="1"/>
    <path id="Tracé_459" data-name="Tracé 459" d="M46.625,57.219a1.15,1.15,0,0,1-1.326-.227l-.773-.787a1.151,1.151,0,0,1-.2-1.329l1.44-2.815a2.3,2.3,0,0,1,.437-.594L60.729,37.238,64.6,41.177,50.067,55.406a2.265,2.265,0,0,1-.6.425Z" fill="#e5f8ff"/>
    <path id="Tracé_460" data-name="Tracé 460" d="M50.144,47.6,46.2,51.467a2.26,2.26,0,0,0-.436.6l-1.441,2.813a1.152,1.152,0,0,0,.2,1.33l.773.787a1.148,1.148,0,0,0,1.325.227l2.842-1.388a2.276,2.276,0,0,0,.6-.425l7.967-7.8Z" fill="#00b8f0"/>
    <path id="Tracé_461" data-name="Tracé 461" d="M47.7,50h7.889l2.447-2.4h-7.89Z" fill="#4acfff"/>
    <path id="Tracé_462" data-name="Tracé 462" d="M75.433,34.426a11.042,11.042,0,0,0-2.373,3.436L72.427,39.3l-9.66-9.839,1.453-.608a11.009,11.009,0,0,0,3.48-2.3l2.915-2.861a5.52,5.52,0,1,1,7.734,7.878Z" fill="#525252"/>
    <path id="Tracé_463" data-name="Tracé 463" d="M70.251,45.3a1.148,1.148,0,0,1-1.626-.016L56.7,33.135a1.149,1.149,0,0,1,.015-1.627L60,28.285a1.15,1.15,0,0,1,1.626.016L73.548,40.446a1.15,1.15,0,0,1-.014,1.626Z" fill="#656769"/>
    <path id="Tracé_464" data-name="Tracé 464" d="M58.546,39.376l3.867,3.939L64.6,41.177l-3.868-3.939Z" fill="#b8ecff"/>
    <path id="Tracé_465" data-name="Tracé 465" d="M70.251,45.3a1.148,1.148,0,0,1-1.626-.016L56.7,33.135a1.149,1.149,0,0,1,.015-1.627L60,28.285a1.15,1.15,0,0,1,1.626.016L73.548,40.446a1.15,1.15,0,0,1-.014,1.626Z" fill="none" stroke="#45413c" stroke-linecap="round" stroke-linejoin="round" stroke-width="1"/>
    <path id="Tracé_466" data-name="Tracé 466" d="M63.237,29.942l-2.955,2.9" fill="none" stroke="#45413c" stroke-linecap="round" stroke-linejoin="round" stroke-width="1"/>
    <path id="Tracé_467" data-name="Tracé 467" d="M66.136,32.9l-2.954,2.9" fill="none" stroke="#45413c" stroke-linecap="round" stroke-linejoin="round" stroke-width="1"/>
    <path id="Tracé_468" data-name="Tracé 468" d="M69.037,35.851l-2.954,2.9" fill="none" stroke="#45413c" stroke-linecap="round" stroke-linejoin="round" stroke-width="1"/>
    <path id="Tracé_469" data-name="Tracé 469" d="M71.937,38.8l-2.954,2.9" fill="none" stroke="#45413c" stroke-linecap="round" stroke-linejoin="round" stroke-width="1"/>
    <path id="Tracé_470" data-name="Tracé 470" d="M79.324,24.976a5.525,5.525,0,0,0-8.711-1.289L67.7,26.548a11.009,11.009,0,0,1-3.478,2.309l-1.453.608,2.04,2.078,1.453-.607a11.03,11.03,0,0,0,3.479-2.309l2.914-2.861a5.506,5.506,0,0,1,6.669-.79Z" fill="#87898c"/>
    <path id="Tracé_471" data-name="Tracé 471" d="M75.433,34.426a11.042,11.042,0,0,0-2.373,3.436L72.427,39.3l-9.66-9.839,1.453-.608a11.009,11.009,0,0,0,3.48-2.3l2.915-2.861a5.52,5.52,0,1,1,7.734,7.878Z" fill="none" stroke="#45413c" stroke-linecap="round" stroke-linejoin="round" stroke-width="1"/>
    <path id="Tracé_472" data-name="Tracé 472" d="M46.625,57.219a1.15,1.15,0,0,1-1.326-.227l-.773-.787a1.151,1.151,0,0,1-.2-1.329l1.44-2.815a2.3,2.3,0,0,1,.437-.594L60.729,37.238,64.6,41.177,50.067,55.406a2.265,2.265,0,0,1-.6.425Z" fill="none" stroke="#45413c" stroke-linecap="round" stroke-linejoin="round" stroke-width="1"/>
    <path id="Tracé_473" data-name="Tracé 473" d="M50.144,47.6,46.2,51.467a2.26,2.26,0,0,0-.436.6l-1.441,2.813a1.152,1.152,0,0,0,.2,1.33l.773.787a1.148,1.148,0,0,0,1.325.227l2.842-1.388a2.276,2.276,0,0,0,.6-.425l7.967-7.8Z" fill="none" stroke="#45413c" stroke-linecap="round" stroke-linejoin="round" stroke-width="1"/>
  </g>
</svg>
