<svg xmlns="http://www.w3.org/2000/svg" width="81" height="82.858" viewBox="0 0 81 82.858">
  <g id="cardResponsive" transform="translate(-9.5 -8.571)">
    <path id="Tracé_474" data-name="Tracé 474" d="M10,50.929a40,40,0,1,0,40-40,40,40,0,0,0-40,40Z" fill="#e8f4fa" stroke="#daedf7" stroke-width="1"/>
    <path id="Tracé_475" data-name="Tracé 475" d="M25.881,85.354c0,.957,11.753,1.733,26.25,1.733s26.25-.776,26.25-1.733-11.752-1.733-26.25-1.733-26.25.776-26.25,1.733Z" fill="#525252" opacity="0.15"/>
    <path id="Tracé_476" data-name="Tracé 476" d="M45.831,63.4a1.325,1.325,0,0,0,1.325,1.325H85.581A1.325,1.325,0,0,0,86.906,63.4V20.334L75.643,9.071H47.156A1.325,1.325,0,0,0,45.831,10.4Z" fill="#fff"/>
    <path id="Tracé_477" data-name="Tracé 477" d="M45.831,63.4a1.325,1.325,0,0,0,1.325,1.325H85.581A1.325,1.325,0,0,0,86.906,63.4V20.334L75.643,9.071H47.156A1.325,1.325,0,0,0,45.831,10.4Z" fill="none" stroke="#45413c" stroke-linecap="round" stroke-linejoin="round" stroke-width="1"/>
    <path id="Tracé_478" data-name="Tracé 478" d="M86.906,20.334H75.643V9.071Z" fill="#e8f4fa" stroke="#45413c" stroke-linecap="round" stroke-linejoin="round" stroke-width="1"/>
    <path id="Tracé_479" data-name="Tracé 479" d="M69.981,45.821h9.45" fill="#b8ecff" stroke="#45413c" stroke-linecap="round" stroke-linejoin="round" stroke-width="1"/>
    <path id="Tracé_480" data-name="Tracé 480" d="M69.981,51.071h9.45" fill="#b8ecff" stroke="#45413c" stroke-linecap="round" stroke-linejoin="round" stroke-width="1"/>
    <path id="Tracé_481" data-name="Tracé 481" d="M69.981,56.321h5.25" fill="#b8ecff" stroke="#45413c" stroke-linecap="round" stroke-linejoin="round" stroke-width="1"/>
    <path id="Tracé_482" data-name="Tracé 482" d="M51.083,22.721H76.9v17.85H51.083Z" fill="#b8ecff" stroke="#45413c" stroke-linecap="round" stroke-linejoin="round" stroke-width="1"/>
    <path id="Tracé_483" data-name="Tracé 483" d="M54.026,26.5a1.243,1.243,0,0,0-.453.088,2.1,2.1,0,0,0-2.066-1.768,2.07,2.07,0,0,0-.42.046V29.02h2.939a1.26,1.26,0,1,0,0-2.52Z" fill="#fff" stroke="#45413c" stroke-linecap="round" stroke-linejoin="round" stroke-width="1"/>
    <path id="Tracé_484" data-name="Tracé 484" d="M76.9,35.32,66.386,26.13a4.2,4.2,0,0,0-5.453-.064l-9.85,8.208v5.247a1.05,1.05,0,0,0,1.05,1.05H75.854a1.05,1.05,0,0,0,1.05-1.05v-4.2" fill="#627b8c"/>
    <path id="Tracé_485" data-name="Tracé 485" d="M55.062,30.958,60.041,29.2a1.047,1.047,0,0,1,.933.116l2.13,1.42a1.051,1.051,0,0,0,1.165,0L66.4,29.314a1.052,1.052,0,0,1,.937-.115l4.343,1.555L66.386,26.13a4.2,4.2,0,0,0-5.453-.064Z" fill="#fff"/>
    <path id="Tracé_486" data-name="Tracé 486" d="M76.9,35.32,66.386,26.13a4.2,4.2,0,0,0-5.453-.064l-9.85,8.208v5.247a1.05,1.05,0,0,0,1.05,1.05H75.854a1.05,1.05,0,0,0,1.05-1.05v-4.2" fill="none" stroke="#45413c" stroke-linecap="round" stroke-linejoin="round" stroke-width="1"/>
    <path id="Tracé_487" data-name="Tracé 487" d="M72.366,67.871a3.15,3.15,0,0,1-3.15,3.15H26.166a3.15,3.15,0,0,1-3.15-3.15V43.516h49.35Z" fill="#b8ecff"/>
    <path id="Tracé_488" data-name="Tracé 488" d="M23.014,43.511h49.35v3.58H23.014Z" fill="#80ddff"/>
    <path id="Tracé_489" data-name="Tracé 489" d="M72.366,37.216a3.15,3.15,0,0,0-3.15-3.15H26.166a3.15,3.15,0,0,0-3.15,3.15v6.3h49.35Z" fill="#fff" stroke="#45413c" stroke-linecap="round" stroke-linejoin="round" stroke-width="1"/>
    <path id="Tracé_490" data-name="Tracé 490" d="M26.166,38.791a1.575,1.575,0,1,0,1.575-1.575,1.575,1.575,0,0,0-1.575,1.575Z" fill="#ff6242"/>
    <path id="Tracé_491" data-name="Tracé 491" d="M31.416,38.791a1.575,1.575,0,1,0,1.575-1.575A1.575,1.575,0,0,0,31.416,38.791Z" fill="#ffe500"/>
    <path id="Tracé_492" data-name="Tracé 492" d="M36.666,38.791a1.575,1.575,0,1,0,1.575-1.575A1.575,1.575,0,0,0,36.666,38.791Z" fill="#6dd627"/>
    <path id="Tracé_493" data-name="Tracé 493" d="M72.366,67.871a3.15,3.15,0,0,1-3.15,3.15H26.166a3.15,3.15,0,0,1-3.15-3.15V43.516h49.35Z" fill="none" stroke="#45413c" stroke-linecap="round" stroke-linejoin="round" stroke-width="1"/>
    <path id="Tracé_494" data-name="Tracé 494" d="M59.31,48.723h9.061" fill="none" stroke="#45413c" stroke-linecap="round" stroke-linejoin="round" stroke-width="1"/>
    <path id="Tracé_495" data-name="Tracé 495" d="M57.381,54.221h10.99" fill="none" stroke="#45413c" stroke-linecap="round" stroke-linejoin="round" stroke-width="1"/>
    <path id="Tracé_496" data-name="Tracé 496" d="M57.381,59.72h6.3" fill="none" stroke="#45413c" stroke-linecap="round" stroke-linejoin="round" stroke-width="1"/>
    <path id="Tracé_497" data-name="Tracé 497" d="M27.359,46.871H53.181v17.85H27.359Z" fill="#e5f8ff" stroke="#45413c" stroke-linecap="round" stroke-linejoin="round" stroke-width="1"/>
    <path id="Tracé_498" data-name="Tracé 498" d="M30.3,50.651a1.244,1.244,0,0,0-.454.088,2.1,2.1,0,0,0-2.066-1.768,2.07,2.07,0,0,0-.42.046v4.154H30.3a1.26,1.26,0,1,0,0-2.52Z" fill="#fff" stroke="#45413c" stroke-linecap="round" stroke-linejoin="round" stroke-width="1"/>
    <path id="Tracé_499" data-name="Tracé 499" d="M53.179,59.47,42.662,50.28a4.2,4.2,0,0,0-5.453-.064l-9.85,8.208v5.247a1.05,1.05,0,0,0,1.05,1.05H52.131a1.051,1.051,0,0,0,1.05-1.05v-4.2" fill="#627b8c"/>
    <path id="Tracé_500" data-name="Tracé 500" d="M31.339,55.108l4.978-1.761a1.047,1.047,0,0,1,.933.116l2.13,1.42a1.051,1.051,0,0,0,1.165,0l2.129-1.419a1.05,1.05,0,0,1,.936-.115L47.953,54.9l-5.291-4.62a4.2,4.2,0,0,0-5.453-.064Z" fill="#fff"/>
    <path id="Tracé_501" data-name="Tracé 501" d="M53.179,59.47,42.662,50.28a4.2,4.2,0,0,0-5.453-.064l-9.85,8.208v5.247a1.05,1.05,0,0,0,1.05,1.05H52.131a1.051,1.051,0,0,0,1.05-1.05v-4.2" fill="none" stroke="#45413c" stroke-linecap="round" stroke-linejoin="round" stroke-width="1"/>
    <path id="Tracé_502" data-name="Tracé 502" d="M15.233,79.707a3.363,3.363,0,0,1-3.362-3.361V61.782a3.359,3.359,0,0,1,3.361-3.36H47.72a3.36,3.36,0,0,1,3.36,3.361V76.346a3.361,3.361,0,0,1-3.361,3.36Z" fill="#fff"/>
    <path id="Tracé_503" data-name="Tracé 503" d="M18.592,58.422H44.347V79.707H18.592Z" fill="#b8ecff"/>
    <path id="Tracé_504" data-name="Tracé 504" d="M15.233,79.707a3.363,3.363,0,0,1-3.362-3.361V61.782a3.359,3.359,0,0,1,3.361-3.36H47.72a3.36,3.36,0,0,1,3.36,3.361V76.346a3.361,3.361,0,0,1-3.361,3.36Z" fill="none" stroke="#45413c" stroke-linecap="round" stroke-linejoin="round" stroke-width="1"/>
    <path id="Tracé_505" data-name="Tracé 505" d="M18.592,58.422H44.347V79.707H18.592Z" fill="none" stroke="#45413c" stroke-linecap="round" stroke-linejoin="round" stroke-width="1"/>
    <path id="Tracé_506" data-name="Tracé 506" d="M47.719,67.944v5.6" fill="none" stroke="#45413c" stroke-linecap="round" stroke-linejoin="round" stroke-width="1"/>
    <path id="Tracé_507" data-name="Tracé 507" d="M47.719,64.355a.788.788,0,0,0,0,1.576h0a.788.788,0,1,0,0-1.576Z" fill="#45413c"/>
    <path id="Tracé_508" data-name="Tracé 508" d="M15.232,70.324a1.26,1.26,0,1,0-1.26-1.26,1.26,1.26,0,0,0,1.26,1.26Z" fill="#fff" stroke="#45413c" stroke-linecap="round" stroke-linejoin="round" stroke-width="1"/>
    <path id="Tracé_509" data-name="Tracé 509" d="M18.594,73.42l9.823-8.185a4.188,4.188,0,0,1,5.438.063l10.493,9.169V79.7H18.594Z" fill="#627b8c"/>
    <path id="Tracé_510" data-name="Tracé 510" d="M39.134,69.906,34.8,68.355a1.049,1.049,0,0,0-.934.115l-2.123,1.415a1.046,1.046,0,0,1-1.162,0l-2.125-1.416a1.047,1.047,0,0,0-.93-.116l-4.953,1.752,5.845-4.87a4.176,4.176,0,0,1,5.436.063Z" fill="#fff"/>
    <path id="Tracé_511" data-name="Tracé 511" d="M18.594,73.42l9.823-8.185a4.188,4.188,0,0,1,5.438.063l10.493,9.169V79.7H18.594Z" fill="none" stroke="#45413c" stroke-linecap="round" stroke-linejoin="round" stroke-width="1"/>
    <path id="Tracé_512" data-name="Tracé 512" d="M18.592,58.427H44.348V79.7H18.592Z" fill="none" stroke="#45413c" stroke-linecap="round" stroke-linejoin="round" stroke-width="1"/>
    <path id="Tracé_513" data-name="Tracé 513" d="M21.527,63.531a1.243,1.243,0,0,0-.453.088,2.074,2.074,0,0,0-2.48-1.718v4.144h2.933a1.257,1.257,0,1,0,0-2.514Z" fill="#fff" stroke="#45413c" stroke-linecap="round" stroke-linejoin="round" stroke-width="1"/>
  </g>
</svg>
