<svg viewBox="0 0 150 150" height="150" width="150" xmlns="http://www.w3.org/2000/svg"><g transform="matrix(1.5,0,0,1.5,0,0)"><path d="M10.000 50.000 A40.000 40.000 0 1 0 90.000 50.000 A40.000 40.000 0 1 0 10.000 50.000 Z" fill="#e8f4fa" stroke="#daedf7"></path><path d="M33.750 82.500 A16 1.5 0 1 0 65.750 82.500 A16 1.5 0 1 0 33.750 82.500 Z" fill="#525252" opacity=".15"></path><path d="M35.294,38.8H64.751a3.978,3.978,0,0,1,3.978,3.978V58.819A3.978,3.978,0,0,1,64.751,62.8H35.293a3.977,3.977,0,0,1-3.977-3.977V42.774A3.978,3.978,0,0,1,35.294,38.8Z" fill="#ebcb00"></path><path d="M49.555,38.8H35.293a3.978,3.978,0,0,0-3.976,3.978v14.26Z" fill="#ffe500"></path><path d="M36.258 57.149L43.317 57.149" fill="none" stroke="#45413c" stroke-linecap="round" stroke-linejoin="round"></path><path d="M36.258 47.267 L43.317 47.267 L43.317 52.208 L36.258 52.208 Z" fill="#ffef9e" stroke="#45413c" stroke-linecap="round" stroke-linejoin="round"></path><path d="M35.294,38.8H64.751a3.978,3.978,0,0,1,3.978,3.978V58.819A3.978,3.978,0,0,1,64.751,62.8H35.293a3.977,3.977,0,0,1-3.977-3.977V42.774A3.978,3.978,0,0,1,35.294,38.8Z" fill="none" stroke="#45413c" stroke-linecap="round" stroke-linejoin="round"></path><path d="M51.787 55.031 A4.235 4.235 0 1 0 60.257 55.031 A4.235 4.235 0 1 0 51.787 55.031 Z" fill="#ff6242"></path><path d="M56.729 55.031 A4.235 4.235 0 1 0 65.199 55.031 A4.235 4.235 0 1 0 56.729 55.031 Z" fill="#ffef9e"></path><path d="M56.728,55.031a4.23,4.23,0,0,0,1.765,3.439,4.233,4.233,0,0,0,0-6.878A4.231,4.231,0,0,0,56.728,55.031Z" fill="#ffaa54"></path><path d="M51.787 55.031 A4.235 4.235 0 1 0 60.257 55.031 A4.235 4.235 0 1 0 51.787 55.031 Z" fill="none" stroke="#45413c" stroke-linecap="round" stroke-linejoin="round"></path><path d="M56.729 55.031 A4.235 4.235 0 1 0 65.199 55.031 A4.235 4.235 0 1 0 56.729 55.031 Z" fill="none" stroke="#45413c" stroke-linecap="round" stroke-linejoin="round"></path><path d="M61.739,21.38a1.264,1.264,0,0,1-.708-1.627l.779-2.024a1,1,0,0,0-1.36-1.264L51.079,20.9a1,1,0,0,0-.46,1.364l4.393,8.5a1,1,0,0,0,1.822-.1l.823-2.14a1.13,1.13,0,0,1,1.473-.641,24.933,24.933,0,1,1-18.846.587,2,2,0,0,0,.948-2.784l-1.427-2.624a2,2,0,0,0-2.566-.873A31.305,31.305,0,1,0,81.5,50.619,31.362,31.362,0,0,0,61.739,21.38Z" fill="#9ceb60"></path><path d="M18.56,48.845a31.495,31.495,0,0,0,62.885-.1q.054.931.054,1.875a31.5,31.5,0,1,1-63,0C18.5,50.053,18.519,49.461,18.56,48.845Z" fill="#6dd627"></path><path d="M61.739,21.38a1.264,1.264,0,0,1-.708-1.627l.779-2.024a1,1,0,0,0-1.36-1.264L51.079,20.9a1,1,0,0,0-.46,1.364l4.393,8.5a1,1,0,0,0,1.822-.1l.823-2.14a1.13,1.13,0,0,1,1.473-.641,24.933,24.933,0,1,1-18.846.587,2,2,0,0,0,.948-2.784l-1.427-2.624a2,2,0,0,0-2.566-.873A31.305,31.305,0,1,0,81.5,50.619,31.362,31.362,0,0,0,61.739,21.38Z" fill="none" stroke="#45413c" stroke-linecap="round" stroke-linejoin="round"></path></g></svg>