<?xml version="1.0" standalone="no"?>
<!DOCTYPE svg PUBLIC "-//W3C//DTD SVG 20010904//EN"
 "http://www.w3.org/TR/2001/REC-SVG-20010904/DTD/svg10.dtd">
<svg version="1.0" xmlns="http://www.w3.org/2000/svg"
 width="960.000000pt" height="960.000000pt" viewBox="0 0 960.000000 960.000000"
 preserveAspectRatio="xMidYMid meet">
<metadata>
Created by potrace 1.14, written by Peter Selinger 2001-2017
</metadata>
<g transform="translate(0.000000,960.000000) scale(0.100000,-0.100000)"
fill="#000000" stroke="none">
<path d="M4693 9585 c-75 -21 -148 -60 -200 -108 -69 -63 -490 -529 -555 -614
-166 -217 -268 -477 -299 -768 -13 -122 -8 -226 21 -500 11 -99 33 -313 50
-475 17 -162 41 -402 55 -532 14 -131 25 -250 25 -265 0 -24 -13 -37 -93 -89
-171 -115 -300 -241 -402 -396 l-38 -58 -886 -2 -886 -3 -65 -31 c-108 -52
-186 -144 -216 -256 -11 -44 -14 -294 -14 -1521 l0 -1468 -55 -112 c-149 -306
-147 -637 6 -941 27 -54 49 -100 49 -101 0 -2 -98 -5 -217 -7 -190 -3 -223 -5
-256 -22 -49 -24 -92 -67 -120 -120 -21 -38 -22 -56 -25 -267 l-3 -226 26 -31
c30 -36 62 -47 340 -116 457 -114 922 -190 1465 -238 212 -19 4575 -19 4800 0
574 48 1120 142 1624 278 146 39 157 44 185 80 20 25 21 39 21 229 0 251 -8
287 -83 360 -72 70 -96 75 -336 75 -112 0 -201 4 -199 8 2 4 24 50 50 102 154
309 153 644 -3 954 l-49 98 0 1467 c0 1591 2 1519 -55 1617 -40 69 -99 122
-173 157 l-67 32 -886 3 -886 2 -38 58 c-103 156 -232 283 -403 396 l-94 61 7
85 c3 47 12 144 20 215 8 72 31 285 50 475 20 190 44 426 55 525 29 274 34
378 21 500 -33 304 -142 573 -324 800 -87 108 -499 560 -548 601 -105 87 -266
124 -396 89z m211 -234 c33 -14 97 -78 277 -277 130 -143 259 -288 287 -324
202 -251 301 -586 272 -918 -6 -64 -20 -200 -30 -302 -11 -102 -42 -403 -70
-670 -54 -524 -79 -752 -86 -787 l-4 -23 -320 0 -320 0 0 108 c0 88 -3 113
-19 138 -26 42 -78 60 -127 44 -59 -20 -74 -56 -74 -182 l0 -108 -320 0 -320
0 -4 23 c-7 35 -31 249 -113 1027 -82 781 -89 911 -60 1075 32 179 103 353
206 502 57 84 462 541 557 630 77 72 171 87 268 44z m-1744 -3808 c0 -10 -5
-38 -11 -63 -6 -25 -14 -76 -17 -115 l-7 -70 -680 -5 c-527 -4 -685 -8 -702
-18 -55 -31 -53 25 -53 -1222 l0 -1150 -55 -25 c-31 -13 -94 -49 -140 -79
l-85 -56 0 1336 c0 1449 -3 1372 53 1433 48 52 24 50 890 51 762 0 807 -1 807
-17z m4917 6 c40 -15 73 -48 94 -94 18 -38 19 -98 19 -1372 0 -733 -3 -1333
-6 -1333 -3 0 -39 22 -80 49 -41 27 -99 60 -129 72 l-54 24 -3 1160 c-3 1244
-1 1182 -52 1216 -17 12 -142 15 -706 19 l-685 5 -7 77 c-4 43 -12 95 -17 115
-6 21 -11 46 -11 56 0 16 45 17 804 17 546 0 814 -3 833 -11z m-5069 -597 c48
-222 122 -401 198 -477 26 -25 74 -60 108 -78 58 -30 66 -32 176 -32 107 0
119 2 170 29 30 16 76 46 103 68 26 22 47 34 47 26 0 -7 -7 -67 -15 -133 -18
-153 -19 -346 -1 -455 42 -258 197 -661 434 -1130 l134 -265 -6 -69 c-12 -127
-83 -356 -112 -356 -6 0 -19 9 -30 21 -66 73 -242 164 -374 193 -20 4 -30 17
-44 56 -43 119 -159 257 -281 336 -154 98 -360 137 -523 99 l-64 -15 -61 53
c-232 201 -503 300 -819 300 l-138 -1 0 857 c0 471 3 907 7 969 l6 112 531 0
531 0 23 -108z m4682 -862 l0 -971 -102 6 c-301 18 -622 -94 -855 -298 l-62
-55 -58 14 c-206 48 -460 -22 -623 -173 -79 -73 -153 -178 -184 -260 -19 -48
-23 -52 -65 -63 -113 -28 -303 -129 -355 -188 -11 -12 -24 -22 -30 -22 -27 0
-101 236 -112 354 l-6 71 121 235 c277 541 431 953 462 1240 11 104 0 339 -22
453 -13 73 -13 73 39 26 129 -115 313 -137 465 -57 106 57 178 162 240 353 33
100 67 241 67 278 l0 27 540 0 540 0 0 -970z m-3191 898 c-111 -387 -96 -764
41 -1044 72 -148 143 -204 260 -204 117 0 188 56 260 204 137 283 152 656 41
1044 l-10 32 73 0 72 0 37 -101 c129 -347 197 -780 156 -981 -45 -221 -165
-525 -366 -928 -162 -326 -245 -475 -263 -475 -20 0 -86 118 -240 425 -216
429 -335 727 -385 963 -46 213 19 636 152 996 l37 101 72 0 73 0 -10 -32z
m213 -530 c40 -60 141 -57 179 6 16 26 19 51 20 171 0 156 10 156 30 0 14
-116 7 -310 -16 -403 -22 -91 -71 -212 -100 -247 l-25 -30 -25 30 c-29 34 -78
156 -100 247 -22 90 -30 295 -16 403 20 148 26 147 31 -6 4 -114 9 -151 22
-171z m-2416 -1744 c152 -44 308 -141 385 -238 l21 -26 -38 -57 c-55 -84 -87
-182 -88 -275 -1 -71 1 -79 27 -106 34 -35 66 -43 114 -30 45 12 69 53 77 130
12 123 80 219 192 274 52 25 70 29 149 29 75 0 98 -4 140 -24 92 -46 167 -140
181 -230 5 -33 4 -41 -9 -41 -8 0 -52 -19 -98 -41 -110 -55 -239 -181 -289
-282 -31 -63 -32 -70 -21 -107 32 -107 161 -108 215 -2 53 103 148 182 267
222 53 18 81 21 160 18 87 -3 103 -7 173 -41 79 -40 162 -112 193 -170 10 -18
31 -66 48 -107 26 -64 35 -78 67 -93 63 -31 88 -18 205 103 57 59 118 127 136
151 92 122 158 269 197 442 l22 97 78 0 78 0 22 -97 c39 -172 107 -324 195
-440 19 -25 81 -94 138 -153 117 -121 142 -134 205 -103 32 15 41 29 67 93 17
41 38 89 48 107 32 60 117 134 196 172 66 31 87 36 168 39 77 4 106 0 164 -18
115 -37 207 -116 270 -228 13 -24 36 -50 51 -58 90 -47 188 30 159 126 -32
108 -178 262 -311 329 -45 22 -89 41 -97 41 -13 0 -14 8 -9 42 15 92 87 182
185 230 38 19 63 23 141 23 84 0 101 -3 148 -28 108 -57 176 -156 188 -275 8
-77 32 -118 77 -130 99 -27 159 44 143 169 -11 82 -43 171 -86 236 -40 61 -41
63 -24 88 25 38 158 142 228 177 155 78 320 109 479 90 347 -43 622 -283 708
-620 27 -105 26 -290 -1 -398 -26 -102 -95 -242 -160 -322 l-51 -62 -3321 2
-3321 3 -54 70 c-71 92 -127 209 -154 320 -18 75 -20 112 -17 220 4 112 9 142
35 220 43 125 96 215 177 302 138 148 295 232 491 263 92 14 244 3 341 -26z
m6504 -1613 c5 -11 10 -72 10 -135 l0 -116 -4010 0 -4010 0 0 123 c0 82 4 127
12 135 9 9 911 12 4000 12 3932 0 3987 0 3998 -19z m-981 -485 c-8 -8 -427
-56 -639 -73 -196 -16 -406 -18 -2380 -18 -1985 0 -2183 1 -2380 18 -200 16
-612 63 -635 72 -5 2 1351 4 3014 4 1663 1 3022 -1 3020 -3z"/>
<path d="M4666 8515 c-107 -27 -185 -72 -267 -154 -119 -119 -172 -243 -173
-406 0 -162 53 -287 173 -405 88 -87 149 -123 257 -150 197 -51 390 0 539 141
120 114 179 251 179 414 0 152 -53 284 -157 392 -115 120 -231 173 -392 179
-67 2 -119 -1 -159 -11z m258 -231 c46 -17 104 -58 140 -101 84 -100 105 -251
52 -370 -33 -73 -103 -143 -174 -176 -38 -18 -66 -22 -142 -22 -83 0 -102 3
-150 27 -73 36 -137 99 -169 167 -22 47 -26 70 -26 146 0 77 4 98 27 147 77
165 267 243 442 182z"/>
</g>
</svg>
